<mxfile host="www.draw.io" modified="2020-05-05T08:10:51.131Z" agent="5.0 (Macintosh; Intel Mac OS X 10_13_1) AppleWebKit/537.36 (KHTML, like Gecko) Chrome/81.0.4044.129 Safari/537.36" etag="ukVOoBfkhmJAC6E9zKbl" version="13.0.4" type="github">
  <diagram id="AYeM0vxwWRvxEllHV5iG" name="第 1 页">
    <mxGraphModel dx="4246" dy="614" grid="1" gridSize="10" guides="1" tooltips="1" connect="1" arrows="1" fold="1" page="1" pageScale="1" pageWidth="3300" pageHeight="4681" background="#ffffff" math="0" shadow="0">
      <root>
        <mxCell id="0" />
        <mxCell id="1" parent="0" />
        <mxCell id="gaKTvZ1fIZgJ5ORg-RLy-19" value="&lt;span style=&quot;color: rgba(0 , 0 , 0 , 0) ; font-family: monospace ; font-size: 0px&quot;&gt;%3CmxGraphModel%3E%3Croot%3E%3CmxCell%20id%3D%220%22%2F%3E%3CmxCell%20id%3D%221%22%20parent%3D%220%22%2F%3E%3CmxCell%20id%3D%222%22%20value%3D%22%22%20style%3D%22shape%3DumlActor%3BverticalLabelPosition%3Dbottom%3BlabelBackgroundColor%3D%23ffffff%3BverticalAlign%3Dtop%3Bhtml%3D1%3BoutlineConnect%3D0%3BstrokeColor%3D%23d79b00%3BfillColor%3D%23ffe6cc%3B%22%20vertex%3D%221%22%20parent%3D%221%22%3E%3CmxGeometry%20x%3D%22360%22%20y%3D%22230%22%20width%3D%2220%22%20height%3D%2240%22%20as%3D%22geometry%22%2F%3E%3C%2FmxCell%3E%3C%2Froot%3E%3C%2FmxGraphModel%3E&lt;/span&gt;" style="rounded=0;whiteSpace=wrap;html=1;strokeColor=#82b366;fillColor=#99FF99;" vertex="1" parent="1">
          <mxGeometry x="-20" y="55" width="1030" height="670" as="geometry" />
        </mxCell>
        <mxCell id="gaKTvZ1fIZgJ5ORg-RLy-1" value="" style="shape=tape;whiteSpace=wrap;html=1;fillColor=#007FFF;strokeColor=none;" vertex="1" parent="1">
          <mxGeometry x="-20" y="310" width="120" height="100" as="geometry" />
        </mxCell>
        <mxCell id="gaKTvZ1fIZgJ5ORg-RLy-2" value="" style="shape=tape;whiteSpace=wrap;html=1;fillColor=#007FFF;strokeColor=none;" vertex="1" parent="1">
          <mxGeometry x="100" y="310" width="120" height="100" as="geometry" />
        </mxCell>
        <mxCell id="gaKTvZ1fIZgJ5ORg-RLy-3" value="" style="shape=tape;whiteSpace=wrap;html=1;fillColor=#007FFF;strokeColor=none;" vertex="1" parent="1">
          <mxGeometry x="220" y="310" width="120" height="100" as="geometry" />
        </mxCell>
        <mxCell id="gaKTvZ1fIZgJ5ORg-RLy-4" value="" style="shape=tape;whiteSpace=wrap;html=1;fillColor=#007FFF;strokeColor=none;" vertex="1" parent="1">
          <mxGeometry x="340" y="310" width="120" height="100" as="geometry" />
        </mxCell>
        <mxCell id="gaKTvZ1fIZgJ5ORg-RLy-5" value="" style="shape=tape;whiteSpace=wrap;html=1;fillColor=#007FFF;strokeColor=none;" vertex="1" parent="1">
          <mxGeometry x="460" y="310" width="120" height="100" as="geometry" />
        </mxCell>
        <mxCell id="gaKTvZ1fIZgJ5ORg-RLy-6" value="" style="shape=tape;whiteSpace=wrap;html=1;fillColor=#007FFF;strokeColor=none;" vertex="1" parent="1">
          <mxGeometry x="580" y="310" width="120" height="100" as="geometry" />
        </mxCell>
        <mxCell id="gaKTvZ1fIZgJ5ORg-RLy-7" value="" style="shape=tape;whiteSpace=wrap;html=1;fillColor=#007FFF;strokeColor=none;" vertex="1" parent="1">
          <mxGeometry x="700" y="310" width="120" height="100" as="geometry" />
        </mxCell>
        <mxCell id="gaKTvZ1fIZgJ5ORg-RLy-8" value="" style="shape=tape;whiteSpace=wrap;html=1;fillColor=#007FFF;strokeColor=none;" vertex="1" parent="1">
          <mxGeometry x="820" y="310" width="120" height="100" as="geometry" />
        </mxCell>
        <mxCell id="gaKTvZ1fIZgJ5ORg-RLy-9" value="" style="shape=tape;whiteSpace=wrap;html=1;fillColor=#007FFF;strokeColor=none;" vertex="1" parent="1">
          <mxGeometry x="-20" y="370" width="120" height="100" as="geometry" />
        </mxCell>
        <mxCell id="gaKTvZ1fIZgJ5ORg-RLy-10" value="" style="shape=tape;whiteSpace=wrap;html=1;fillColor=#007FFF;strokeColor=none;" vertex="1" parent="1">
          <mxGeometry x="100" y="370" width="120" height="100" as="geometry" />
        </mxCell>
        <mxCell id="gaKTvZ1fIZgJ5ORg-RLy-11" value="" style="shape=tape;whiteSpace=wrap;html=1;fillColor=#007FFF;strokeColor=none;" vertex="1" parent="1">
          <mxGeometry x="220" y="370" width="120" height="100" as="geometry" />
        </mxCell>
        <mxCell id="gaKTvZ1fIZgJ5ORg-RLy-12" value="" style="shape=tape;whiteSpace=wrap;html=1;fillColor=#007FFF;strokeColor=none;" vertex="1" parent="1">
          <mxGeometry x="340" y="370" width="120" height="100" as="geometry" />
        </mxCell>
        <mxCell id="gaKTvZ1fIZgJ5ORg-RLy-13" value="" style="shape=tape;whiteSpace=wrap;html=1;fillColor=#007FFF;strokeColor=none;" vertex="1" parent="1">
          <mxGeometry x="460" y="370" width="120" height="100" as="geometry" />
        </mxCell>
        <mxCell id="gaKTvZ1fIZgJ5ORg-RLy-14" value="" style="shape=tape;whiteSpace=wrap;html=1;fillColor=#007FFF;strokeColor=none;" vertex="1" parent="1">
          <mxGeometry x="580" y="370" width="120" height="100" as="geometry" />
        </mxCell>
        <mxCell id="gaKTvZ1fIZgJ5ORg-RLy-15" value="" style="shape=tape;whiteSpace=wrap;html=1;fillColor=#007FFF;strokeColor=none;" vertex="1" parent="1">
          <mxGeometry x="700" y="370" width="120" height="100" as="geometry" />
        </mxCell>
        <mxCell id="gaKTvZ1fIZgJ5ORg-RLy-16" value="" style="shape=tape;whiteSpace=wrap;html=1;fillColor=#007FFF;strokeColor=none;" vertex="1" parent="1">
          <mxGeometry x="820" y="370" width="120" height="100" as="geometry" />
        </mxCell>
        <mxCell id="gaKTvZ1fIZgJ5ORg-RLy-22" value="" style="shape=umlActor;verticalLabelPosition=bottom;labelBackgroundColor=#ffffff;verticalAlign=top;html=1;outlineConnect=0;strokeColor=#d79b00;fillColor=#ffe6cc;" vertex="1" parent="1">
          <mxGeometry x="310" y="220" width="20" height="40" as="geometry" />
        </mxCell>
        <mxCell id="gaKTvZ1fIZgJ5ORg-RLy-28" value="" style="shape=umlActor;verticalLabelPosition=bottom;labelBackgroundColor=#ffffff;verticalAlign=top;html=1;outlineConnect=0;strokeColor=#d79b00;fillColor=#ffe6cc;" vertex="1" parent="1">
          <mxGeometry x="370" y="240" width="20" height="40" as="geometry" />
        </mxCell>
        <mxCell id="gaKTvZ1fIZgJ5ORg-RLy-29" value="" style="shape=umlActor;verticalLabelPosition=bottom;labelBackgroundColor=#ffffff;verticalAlign=top;html=1;outlineConnect=0;strokeColor=#d79b00;fillColor=#ffe6cc;" vertex="1" parent="1">
          <mxGeometry x="260" y="160" width="20" height="40" as="geometry" />
        </mxCell>
        <mxCell id="gaKTvZ1fIZgJ5ORg-RLy-30" value="" style="shape=umlActor;verticalLabelPosition=bottom;labelBackgroundColor=#ffffff;verticalAlign=top;html=1;outlineConnect=0;strokeColor=#d79b00;fillColor=#ffe6cc;" vertex="1" parent="1">
          <mxGeometry x="430" y="160" width="20" height="40" as="geometry" />
        </mxCell>
        <mxCell id="gaKTvZ1fIZgJ5ORg-RLy-31" value="" style="shape=umlActor;verticalLabelPosition=bottom;labelBackgroundColor=#ffffff;verticalAlign=top;html=1;outlineConnect=0;strokeColor=#d79b00;fillColor=#ffe6cc;" vertex="1" parent="1">
          <mxGeometry x="520" y="200" width="20" height="40" as="geometry" />
        </mxCell>
        <mxCell id="gaKTvZ1fIZgJ5ORg-RLy-32" value="" style="shape=umlActor;verticalLabelPosition=bottom;labelBackgroundColor=#ffffff;verticalAlign=top;html=1;outlineConnect=0;strokeColor=#d79b00;fillColor=#ffe6cc;" vertex="1" parent="1">
          <mxGeometry x="570" y="140" width="20" height="40" as="geometry" />
        </mxCell>
        <mxCell id="gaKTvZ1fIZgJ5ORg-RLy-35" value="" style="shape=umlActor;verticalLabelPosition=bottom;labelBackgroundColor=#ffffff;verticalAlign=top;html=1;outlineConnect=0;strokeColor=#d79b00;fillColor=#ffe6cc;" vertex="1" parent="1">
          <mxGeometry x="430" y="230" width="20" height="40" as="geometry" />
        </mxCell>
        <mxCell id="gaKTvZ1fIZgJ5ORg-RLy-36" value="" style="shape=umlActor;verticalLabelPosition=bottom;labelBackgroundColor=#ffffff;verticalAlign=top;html=1;outlineConnect=0;strokeColor=#d79b00;fillColor=#ffe6cc;" vertex="1" parent="1">
          <mxGeometry x="540" y="260" width="20" height="40" as="geometry" />
        </mxCell>
        <mxCell id="gaKTvZ1fIZgJ5ORg-RLy-37" value="" style="shape=umlActor;verticalLabelPosition=bottom;labelBackgroundColor=#ffffff;verticalAlign=top;html=1;outlineConnect=0;strokeColor=#d79b00;fillColor=#ffe6cc;" vertex="1" parent="1">
          <mxGeometry x="710" y="520" width="20" height="40" as="geometry" />
        </mxCell>
        <mxCell id="gaKTvZ1fIZgJ5ORg-RLy-38" value="" style="shape=umlActor;verticalLabelPosition=bottom;labelBackgroundColor=#ffffff;verticalAlign=top;html=1;outlineConnect=0;strokeColor=#d79b00;fillColor=#ffe6cc;" vertex="1" parent="1">
          <mxGeometry x="710" y="260" width="20" height="40" as="geometry" />
        </mxCell>
        <mxCell id="gaKTvZ1fIZgJ5ORg-RLy-39" value="" style="shape=umlActor;verticalLabelPosition=bottom;labelBackgroundColor=#ffffff;verticalAlign=top;html=1;outlineConnect=0;strokeColor=#d79b00;fillColor=#ffe6cc;" vertex="1" parent="1">
          <mxGeometry x="190" y="250" width="20" height="40" as="geometry" />
        </mxCell>
        <mxCell id="gaKTvZ1fIZgJ5ORg-RLy-40" value="" style="shape=umlActor;verticalLabelPosition=bottom;labelBackgroundColor=#ffffff;verticalAlign=top;html=1;outlineConnect=0;strokeColor=#d79b00;fillColor=#ffe6cc;" vertex="1" parent="1">
          <mxGeometry x="100" y="210" width="20" height="40" as="geometry" />
        </mxCell>
        <mxCell id="gaKTvZ1fIZgJ5ORg-RLy-41" value="" style="shape=umlActor;verticalLabelPosition=bottom;labelBackgroundColor=#ffffff;verticalAlign=top;html=1;outlineConnect=0;strokeColor=#d79b00;fillColor=#ffe6cc;" vertex="1" parent="1">
          <mxGeometry x="180" y="620" width="20" height="40" as="geometry" />
        </mxCell>
        <mxCell id="gaKTvZ1fIZgJ5ORg-RLy-42" value="" style="shape=umlActor;verticalLabelPosition=bottom;labelBackgroundColor=#ffffff;verticalAlign=top;html=1;outlineConnect=0;strokeColor=#d79b00;fillColor=#ffe6cc;" vertex="1" parent="1">
          <mxGeometry x="150" y="490" width="20" height="40" as="geometry" />
        </mxCell>
        <mxCell id="gaKTvZ1fIZgJ5ORg-RLy-43" value="" style="shape=umlActor;verticalLabelPosition=bottom;labelBackgroundColor=#ffffff;verticalAlign=top;html=1;outlineConnect=0;strokeColor=#d79b00;fillColor=#ffe6cc;" vertex="1" parent="1">
          <mxGeometry x="210" y="530" width="20" height="40" as="geometry" />
        </mxCell>
        <mxCell id="gaKTvZ1fIZgJ5ORg-RLy-44" value="" style="shape=umlActor;verticalLabelPosition=bottom;labelBackgroundColor=#ffffff;verticalAlign=top;html=1;outlineConnect=0;strokeColor=#d79b00;fillColor=#ffe6cc;" vertex="1" parent="1">
          <mxGeometry x="300" y="540" width="20" height="40" as="geometry" />
        </mxCell>
        <mxCell id="gaKTvZ1fIZgJ5ORg-RLy-45" value="" style="shape=umlActor;verticalLabelPosition=bottom;labelBackgroundColor=#ffffff;verticalAlign=top;html=1;outlineConnect=0;strokeColor=#d79b00;fillColor=#ffe6cc;" vertex="1" parent="1">
          <mxGeometry x="620" y="210" width="20" height="40" as="geometry" />
        </mxCell>
        <mxCell id="gaKTvZ1fIZgJ5ORg-RLy-48" value="" style="shape=umlActor;verticalLabelPosition=bottom;labelBackgroundColor=#ffffff;verticalAlign=top;html=1;outlineConnect=0;strokeColor=#d79b00;fillColor=#ffe6cc;" vertex="1" parent="1">
          <mxGeometry x="520" y="540" width="20" height="40" as="geometry" />
        </mxCell>
        <mxCell id="gaKTvZ1fIZgJ5ORg-RLy-49" value="" style="shape=umlActor;verticalLabelPosition=bottom;labelBackgroundColor=#ffffff;verticalAlign=top;html=1;outlineConnect=0;strokeColor=#d79b00;fillColor=#ffe6cc;" vertex="1" parent="1">
          <mxGeometry x="630" y="490" width="20" height="40" as="geometry" />
        </mxCell>
        <mxCell id="gaKTvZ1fIZgJ5ORg-RLy-50" value="" style="shape=umlActor;verticalLabelPosition=bottom;labelBackgroundColor=#ffffff;verticalAlign=top;html=1;outlineConnect=0;strokeColor=#d79b00;fillColor=#ffe6cc;" vertex="1" parent="1">
          <mxGeometry x="590" y="570" width="20" height="40" as="geometry" />
        </mxCell>
        <mxCell id="gaKTvZ1fIZgJ5ORg-RLy-51" value="" style="shape=umlActor;verticalLabelPosition=bottom;labelBackgroundColor=#ffffff;verticalAlign=top;html=1;outlineConnect=0;strokeColor=#d79b00;fillColor=#ffe6cc;" vertex="1" parent="1">
          <mxGeometry x="690" y="180" width="20" height="40" as="geometry" />
        </mxCell>
        <mxCell id="gaKTvZ1fIZgJ5ORg-RLy-52" value="" style="shape=umlActor;verticalLabelPosition=bottom;labelBackgroundColor=#ffffff;verticalAlign=top;html=1;outlineConnect=0;strokeColor=#d79b00;fillColor=#ffe6cc;" vertex="1" parent="1">
          <mxGeometry x="430" y="560" width="20" height="40" as="geometry" />
        </mxCell>
      </root>
    </mxGraphModel>
  </diagram>
</mxfile>
